<svg width="49" height="56" viewBox="0 0 49 56" fill="none" xmlns="http://www.w3.org/2000/svg">
<path d="M43 29.25V15C43 10.7996 43 8.69941 42.1825 7.09507C41.4635 5.68386 40.3161 4.5365 38.9049 3.81745C37.3006 3 35.2004 3 31 3H15C10.7996 3 8.69941 3 7.09507 3.81745C5.68386 4.5365 4.5365 5.68386 3.81745 7.09507C3 8.69941 3 10.7996 3 15V41C3 45.2004 3 47.3006 3.81745 48.9049C4.5365 50.3161 5.68386 51.4635 7.09507 52.1825C8.69941 53 10.7996 53 15 53H23M28 25.5H13M18 35.5H13M33 15.5H13M29.25 45.5L34.25 50.5L45.5 39.25" stroke="#1479FF" stroke-width="6" stroke-linecap="round" stroke-linejoin="round"/>
</svg>
