<svg width="56" height="48" viewBox="0 0 56 48" fill="none" xmlns="http://www.w3.org/2000/svg">
<path d="M45.5 18V3M38 10.5H53M38 45.5V42.5C38 38.2996 38 36.1994 37.1825 34.5951C36.4635 33.1839 35.3161 32.0365 33.9049 31.3175C32.3006 30.5 30.2004 30.5 26 30.5H15C10.7996 30.5 8.69941 30.5 7.09507 31.3175C5.68386 32.0365 4.5365 33.1839 3.81745 34.5951C3 36.1994 3 38.2996 3 42.5V45.5M29.25 11.75C29.25 16.5825 25.3325 20.5 20.5 20.5C15.6675 20.5 11.75 16.5825 11.75 11.75C11.75 6.91751 15.6675 3 20.5 3C25.3325 3 29.25 6.91751 29.25 11.75Z" stroke="#1479FF" stroke-width="5" stroke-linecap="round" stroke-linejoin="round"/>
</svg>
