<svg width="59" height="62" viewBox="0 0 59 62" fill="none" xmlns="http://www.w3.org/2000/svg">
<path d="M26.9329 50.503C26.9329 51.8554 25.8342 52.9635 24.4876 52.8386C20.1143 52.433 15.8968 50.944 12.2237 48.4897C7.86976 45.5805 4.47628 41.4456 2.47239 36.6077C0.46849 31.7699 -0.0558195 26.4465 0.965758 21.3107C1.98734 16.1749 4.50892 11.4573 8.21163 7.7546C11.9144 4.05188 16.6319 1.5303 21.7677 0.508726C26.9035 -0.512851 32.2269 0.0114604 37.0648 2.01536C41.9026 4.01925 46.0376 7.41273 48.9468 11.7667C51.4011 15.4398 52.89 19.6573 53.2956 24.0306C53.4205 25.3772 52.3124 26.4759 50.96 26.4759C49.6076 26.4759 48.5256 25.376 48.3724 24.0323C47.9846 20.6293 46.7905 17.3549 44.8746 14.4876C42.5036 10.9391 39.1335 8.1733 35.1906 6.54009C31.2476 4.90688 26.909 4.47955 22.7232 5.31216C18.5374 6.14476 14.6925 8.1999 11.6747 11.2177C8.65693 14.2355 6.6018 18.0804 5.76919 22.2661C4.93659 26.4519 5.36391 30.7906 6.99712 34.7335C8.63033 38.6765 11.3961 42.0465 14.9446 44.4176C17.8119 46.3335 21.0863 47.5275 24.4893 47.9154C25.833 48.0686 26.9329 49.1505 26.9329 50.503Z" fill="black"/>
<path d="M42.9089 50.6583H31.5308V48.437L37.553 42.2913C39.0175 40.8269 39.7497 39.5599 39.7497 38.4904C39.7497 37.6676 39.5029 37.0177 39.0092 36.5405C38.5156 36.0634 37.8739 35.8248 37.0841 35.8248C35.6361 35.8248 34.5666 36.5405 33.8755 37.9721L31.4814 36.5652C32.0079 35.4299 32.7648 34.566 33.7521 33.9737C34.7393 33.3648 35.8418 33.0604 37.0594 33.0604C38.5896 33.0604 39.8895 33.5376 40.9591 34.492C42.0451 35.4628 42.588 36.7627 42.588 38.3916C42.588 40.1358 41.609 42.0116 39.651 44.019L35.7513 47.9187H42.9089V50.6583ZM55.389 44.9075H57.3636V47.5485H55.389V50.6583H52.526V47.5485H44.0356V44.9075L49.9838 33.3813H53.069L47.1208 44.9075H52.526V40.4155H55.389V44.9075Z" fill="black"/>
<path d="M50.5668 29.5863C50.713 29.7699 50.992 29.7699 51.1382 29.5863L56.7057 22.595C56.8962 22.3557 56.7259 22.0023 56.42 22.0023H45.285C44.9792 22.0023 44.8088 22.3557 44.9993 22.595L50.5668 29.5863Z" fill="black"/>
<rect x="25.4121" y="14.2422" width="3.65184" height="15.7029" rx="1.82592" fill="black"/>
<rect x="27.5117" y="25.9281" width="3.65184" height="11.224" rx="1.82592" transform="rotate(61.7889 27.5117 25.9281)" fill="black"/>
</svg>
