<svg width="51" height="55" viewBox="0 0 51 55" fill="none" xmlns="http://www.w3.org/2000/svg">
<path d="M22.9297 0.0602264C19.9752 0.404625 16.5674 1.40157 14.1566 2.61604C6.92424 6.24129 1.83075 13.0024 0.326273 20.978C0.0362526 22.5006 0 23.8419 0 32.035C0.0707875 35.6806 0 40.645 0.181263 41.37C0.362526 42.0951 0.48941 42.4032 0.48941 42.4032C1.26884 44.089 2.64644 45.3759 4.2778 45.9741C4.64033 46.101 4.78534 46.3185 4.8941 46.8442C5.2385 48.693 6.72485 51.0857 8.28371 52.3002C9.42567 53.1702 10.8395 53.8409 12.199 54.1309C13.5585 54.421 25.6487 54.4028 26.2831 54.1128C26.8088 53.8772 27.2801 53.1159 27.2801 52.5177C27.2801 51.992 26.8088 51.1401 26.4281 50.9588C26.2469 50.8682 23.0929 50.7594 19.3951 50.7051C12.8334 50.6144 12.6703 50.5963 11.7458 50.1794C10.5676 49.6537 9.13565 48.1855 8.70062 47.0254C8.51935 46.5541 8.4106 46.1554 8.44685 46.1191C8.4831 46.101 8.90001 45.9016 9.35316 45.666C10.8939 44.8865 12.1265 43.4183 12.6703 41.6963C12.9422 40.8987 12.9784 39.9199 12.924 34.3552L12.8697 27.9566L12.3984 26.9415C11.5102 25.0382 9.98758 23.7513 8.02994 23.2256C6.79736 22.8993 6.21732 22.8993 4.91222 23.2437C4.31406 23.4069 3.80652 23.4794 3.75214 23.425C3.589 23.28 4.09654 20.5792 4.56782 19.0747C6.96049 11.4254 13.2503 5.6975 21.1171 4.01175C22.2409 3.77611 23.4373 3.68548 25.4674 3.68548C29.419 3.68548 31.9385 4.26553 35.3463 5.96939C37.322 6.96634 38.8809 8.09017 40.6573 9.81217C43.1224 12.1867 44.7175 14.5975 45.9501 17.8059C46.4939 19.2378 47.219 22.3193 47.219 23.2256C47.219 23.6607 47.2008 23.6788 46.6208 23.425C43.6662 22.1924 40.0228 23.7694 38.5546 26.9234C38.5546 26.9234 38.2465 27.4128 38.1558 28.0472C38.0652 28.6816 38.0321 31.8453 38.0108 34.337C37.9564 41.4063 37.9927 41.7869 39.0803 43.4908C39.7872 44.5965 40.9473 45.5028 42.2886 46.0104C43.7568 46.5541 45.8414 46.4454 47.219 45.7747C48.5784 45.104 49.7023 43.9621 50.3729 42.5482L50.9349 41.37L50.9892 32.8869C51.0436 23.6244 50.9167 21.5943 50.0285 18.5672C47.364 9.35901 40.041 2.5254 30.6334 0.477127C29.0564 0.132729 24.4161 -0.121037 22.9297 0.0602264Z" fill="black"/>
</svg>
