<svg width="40" height="40" viewBox="0 0 40 40" fill="none" xmlns="http://www.w3.org/2000/svg">
<path d="M21.8378 0C25.3351 0.00697555 26.0895 0.0365924 27.8802 0.118611C29.9824 0.214894 31.4186 0.543861 32.6703 1.0333C33.9701 1.53879 35.0693 2.21277 36.1686 3.312C37.2598 4.4032 37.9338 5.51046 38.4392 6.80225C38.9207 8.05393 39.2576 9.49015 39.3539 11.5923C39.4431 13.5388 39.4703 14.2608 39.4739 18.6118V20.8447C39.4703 25.1957 39.4431 25.9177 39.3539 27.8642C39.2576 29.9663 38.9287 31.4026 38.4392 32.6542C37.9338 33.9541 37.2598 35.0533 36.1605 36.1525C35.0613 37.2517 33.9621 37.9257 32.6623 38.4312C31.4106 38.9126 29.9743 39.2496 27.8722 39.3459C25.77 39.4422 25.096 39.4663 19.7363 39.4663L19.1597 39.4662C14.3246 39.4644 13.6247 39.4386 11.6004 39.3459C9.49817 39.2496 8.06195 38.9206 6.81028 38.4312C5.51045 37.9257 4.41123 37.2517 3.312 36.1525C2.21277 35.0533 1.53879 33.9541 1.0333 32.6542C0.551885 31.4026 0.214887 29.9663 0.118604 27.8642C0.0365849 26.0734 0.00697555 25.319 0 21.8217V17.6348C0.00697555 14.1374 0.0365849 13.3831 0.118604 11.5923C0.214887 9.49015 0.543861 8.05393 1.0333 6.80225C1.53879 5.51046 2.21277 4.4032 3.312 3.312C4.41123 2.21277 5.51045 1.53879 6.81028 1.0333C8.06195 0.543861 9.49818 0.206871 11.6084 0.118611C13.3991 0.0365924 14.1535 0.00697555 17.6508 0H21.8378ZM20.3032 3.55277H19.1694C14.4164 3.554 13.762 3.57232 11.7608 3.66504C9.83517 3.75329 8.7921 4.07424 8.09405 4.34704C7.17133 4.7081 6.5134 5.13335 5.82338 5.82338C5.13335 6.51341 4.70809 7.17134 4.34703 8.09405C4.07423 8.7921 3.75329 9.83517 3.66503 11.7608C3.57677 13.8389 3.55271 14.4648 3.55271 19.7363C3.55271 25.0078 3.56875 25.6336 3.66503 27.7117C3.75329 29.6374 4.07423 30.6804 4.34703 31.3785C4.70809 32.3012 5.13335 32.9591 5.82338 33.6492C6.5134 34.3392 7.17133 34.7644 8.09405 35.1255C8.7921 35.3983 9.83517 35.7192 11.7608 35.8075C13.8389 35.8958 14.4648 35.9198 19.7363 35.9198L20.3032 35.9198C25.0561 35.9185 25.7106 35.9002 27.7117 35.8075C29.6374 35.7192 30.6804 35.3983 31.3785 35.1255C32.3012 34.7644 32.9591 34.3392 33.6491 33.6492C34.3392 32.9591 34.7644 32.3012 35.1255 31.3785C35.3983 30.6804 35.7192 29.6374 35.8075 27.7117C35.8958 25.6336 35.9198 25.0078 35.9198 19.7363L35.9198 19.1694C35.9185 14.4164 35.9002 13.762 35.8075 11.7608C35.7192 9.83517 35.3983 8.7921 35.1255 8.09405C34.7644 7.17134 34.3392 6.51341 33.6491 5.82338C32.9591 5.13335 32.3012 4.7081 31.3785 4.34704C30.6804 4.07424 29.6374 3.75329 27.7117 3.66504C25.6336 3.56875 25.0078 3.55271 19.7363 3.55271L20.3032 3.55277ZM19.7363 9.60248C25.3367 9.60248 29.8701 14.1438 29.8701 19.7363C29.8701 25.3287 25.3287 29.87 19.7363 29.87C14.1438 29.87 9.60248 25.3367 9.60248 19.7363C9.60248 14.1358 14.1358 9.60248 19.7363 9.60248ZM19.7363 13.1569C16.1016 13.1569 13.1569 16.1016 13.1569 19.7363C13.1569 23.3709 16.1016 26.3156 19.7363 26.3156C23.371 26.3156 26.3156 23.3709 26.3156 19.7363C26.3156 16.1016 23.371 13.1569 19.7363 13.1569ZM30.2793 6.83435C31.5865 6.83435 32.6462 7.89407 32.6462 9.20131C32.6462 10.5085 31.5865 11.5683 30.2793 11.5683C28.972 11.5683 27.9123 10.5085 27.9123 9.20131C27.9123 7.89407 28.972 6.83435 30.2793 6.83435Z" fill="#1479FF"/>
</svg>
