<svg width="54" height="54" viewBox="0 0 54 54" fill="none" xmlns="http://www.w3.org/2000/svg">
<path d="M30.8237 17.8796C29.3927 18.8999 27.6414 19.5 25.75 19.5C20.9175 19.5 17 15.5825 17 10.75C17 5.91751 20.9175 2 25.75 2C28.8825 2 31.6305 3.64604 33.1763 6.12036M12 47.2179H18.5257C19.3766 47.2179 20.2222 47.3191 21.047 47.5216L27.9422 49.1972C29.4384 49.5617 30.9969 49.5971 32.5087 49.3035L40.1324 47.8203C42.1464 47.428 43.999 46.4636 45.4509 45.0513L50.8447 39.8043C52.3851 38.3084 52.3851 35.8811 50.8447 34.3827C49.4579 33.0336 47.2618 32.8817 45.6928 34.0258L39.4065 38.6121C38.5062 39.2702 37.4108 39.6246 36.2841 39.6246H30.2137L34.0777 39.6244C36.2555 39.6244 38.0196 37.9083 38.0196 35.7898V35.0229C38.0196 33.2637 36.7889 31.7299 35.0352 31.3047L29.0715 29.8544C28.101 29.619 27.107 29.5 26.1078 29.5C23.6958 29.5 19.3297 31.497 19.3297 31.497L12 34.5622M47 13.25C47 18.0825 43.0825 22 38.25 22C33.4175 22 29.5 18.0825 29.5 13.25C29.5 8.41751 33.4175 4.5 38.25 4.5C43.0825 4.5 47 8.41751 47 13.25ZM2 33.5L2 48C2 49.4001 2 50.1002 2.27248 50.635C2.51217 51.1054 2.89462 51.4878 3.36502 51.7275C3.8998 52 4.59987 52 6 52H8C9.40013 52 10.1002 52 10.635 51.7275C11.1054 51.4878 11.4878 51.1054 11.7275 50.635C12 50.1002 12 49.4001 12 48V33.5C12 32.0999 12 31.3998 11.7275 30.865C11.4878 30.3946 11.1054 30.0122 10.635 29.7725C10.1002 29.5 9.40013 29.5 8 29.5L6 29.5C4.59987 29.5 3.8998 29.5 3.36502 29.7725C2.89462 30.0122 2.51217 30.3946 2.27248 30.865C2 31.3998 2 32.0999 2 33.5Z" stroke="#1479FF" stroke-width="4" stroke-linecap="round" stroke-linejoin="round"/>
</svg>
