<svg width="56" height="45" viewBox="0 0 56 45" fill="none" xmlns="http://www.w3.org/2000/svg">
<path d="M3 15H53V10.5C53 7.69974 53 6.29961 52.455 5.23005C51.9757 4.28924 51.2108 3.52434 50.27 3.04497C49.2004 2.5 47.8003 2.5 45 2.5H11C8.19974 2.5 6.79961 2.5 5.73005 3.04497C4.78924 3.52433 4.02434 4.28924 3.54497 5.23005C3 6.29961 3 7.69974 3 10.5V29.5C3 32.3003 3 33.7004 3.54497 34.7699C4.02433 35.7108 4.78924 36.4757 5.73005 36.955C6.79961 37.5 8.19974 37.5 11 37.5H25.5M34.25 42.5L39.3124 41.4875C39.7538 41.3992 39.9745 41.3551 40.1803 41.2744C40.363 41.2027 40.5366 41.1098 40.6976 40.9976C40.8789 40.8711 41.0381 40.7119 41.3564 40.3936L51.75 30C53.1307 28.6193 53.1307 26.3807 51.75 25C50.3693 23.6193 48.1307 23.6193 46.75 25L36.3564 35.3936C36.0381 35.7119 35.8789 35.8711 35.7524 36.0524C35.6402 36.2134 35.5473 36.387 35.4756 36.5697C35.3949 36.7755 35.3508 36.9962 35.2625 37.4376L34.25 42.5Z" stroke="#1479FF" stroke-width="5" stroke-linecap="round" stroke-linejoin="round"/>
</svg>
