<svg width="56" height="50" viewBox="0 0 56 50" fill="none" xmlns="http://www.w3.org/2000/svg">
<path d="M53 17.5H3M3 14.5L3 35.5C3 39.7004 3 41.8006 3.81745 43.4049C4.5365 44.8161 5.68386 45.9635 7.09507 46.6825C8.69941 47.5 10.7996 47.5 15 47.5H41C45.2004 47.5 47.3006 47.5 48.9049 46.6825C50.3161 45.9635 51.4635 44.8161 52.1826 43.4049C53 41.8006 53 39.7004 53 35.5V14.5C53 10.2996 53 8.19941 52.1826 6.59507C51.4635 5.18386 50.3161 4.03651 48.9049 3.31745C47.3006 2.5 45.2004 2.5 41 2.5L15 2.5C10.7996 2.5 8.69941 2.5 7.09507 3.31745C5.68386 4.0365 4.5365 5.18385 3.81745 6.59507C3 8.19941 3 10.2996 3 14.5Z" stroke="#1479FF" stroke-width="5" stroke-linecap="round" stroke-linejoin="round"/>
</svg>
