<svg width="62" height="62" viewBox="0 0 62 62" fill="none" xmlns="http://www.w3.org/2000/svg">
<path d="M26.8563 1.43125C25.7313 2.03125 25.3 2.85625 25.0188 5.06875C24.8875 6.0625 24.7375 6.98125 24.6813 7.1125C24.625 7.24375 24.025 7.54375 23.35 7.76875C22.6562 7.99375 21.325 8.5375 20.3875 8.96875L18.6813 9.75625L17.575 8.9125C15.4938 7.3375 14.8563 7 13.9938 7C12.7563 7 11.9875 7.50625 9.7 9.85C7.375 12.1937 7 12.775 7 13.9937C7 14.8562 7.3375 15.4937 8.9125 17.575L9.75625 18.6812L8.96875 20.3875C8.5375 21.325 7.99375 22.6562 7.76875 23.35C7.54375 24.025 7.24375 24.625 7.1125 24.6812C6.98125 24.7375 6.0625 24.8875 5.06875 25.0187C2.85625 25.3 2.03125 25.7312 1.43125 26.8562C1.01875 27.625 1 27.8875 1 31C1 34.1125 1.01875 34.375 1.43125 35.1437C2.03125 36.2687 2.85625 36.7 5.06875 36.9812C6.0625 37.1125 6.98125 37.2625 7.1125 37.3187C7.24375 37.375 7.54375 37.975 7.76875 38.65C7.99375 39.3438 8.5375 40.675 8.96875 41.6125L9.75625 43.3187L8.9125 44.425C7.3375 46.5062 7 47.1437 7 48.0062C7 49.2437 7.50625 50.0125 9.85 52.3C12.1938 54.625 12.775 55 13.9938 55C14.8563 55 15.4938 54.6625 17.575 53.0875L18.6813 52.2437L20.3875 53.0312C21.325 53.4625 22.6562 54.0062 23.35 54.2312C24.025 54.4562 24.625 54.7562 24.6813 54.8875C24.7375 55.0187 24.8875 55.9375 25.0188 56.9312C25.3 59.1437 25.7313 59.9688 26.8563 60.5687C27.625 60.9812 27.8875 61 31 61C34.1125 61 34.375 60.9812 35.1438 60.5687C36.2688 59.9688 36.7 59.1437 36.9813 56.9312C37.1125 55.9375 37.2625 55.0187 37.3188 54.8875C37.375 54.7562 37.975 54.4562 38.65 54.2312C39.3438 54.0062 40.675 53.4625 41.6125 53.0312L43.3188 52.2437L44.425 53.0875C46.5063 54.6625 47.1438 55 48.0063 55C49.225 55 49.8063 54.625 52.15 52.3C55.7688 48.7375 55.8625 48.0812 53.0875 44.425L52.2438 43.3187L53.0313 41.6125C53.4625 40.675 54.0063 39.3438 54.2313 38.65C54.4938 37.8812 54.775 37.3562 54.9625 37.3C55.1313 37.2437 56.0688 37.1125 57.025 36.9812C59.1438 36.6812 59.9688 36.25 60.5688 35.1437C60.9813 34.375 61 34.1125 61 31C61 27.8875 60.9813 27.625 60.5688 26.8562C59.9688 25.75 59.1438 25.3187 57.025 25.0187C56.0688 24.8875 55.1313 24.7562 54.9625 24.7C54.775 24.6437 54.4938 24.1187 54.2313 23.35C54.0063 22.6562 53.4625 21.325 53.0313 20.3875L52.2438 18.6812L53.0875 17.575C54.6625 15.4937 55 14.8562 55 13.9937C55 12.775 54.625 12.1937 52.3 9.85C48.7375 6.23125 48.0813 6.1375 44.425 8.9125L43.3188 9.75625L41.6125 8.96875C40.675 8.5375 39.3438 7.99375 38.65 7.76875C37.975 7.54375 37.375 7.24375 37.3188 7.1125C37.2625 6.98125 37.1125 6.0625 36.9813 5.06875C36.7 2.85625 36.2688 2.03125 35.1438 1.43125C34.375 1.01875 34.1125 0.999996 31 0.999996C27.8875 0.999996 27.625 1.01875 26.8563 1.43125ZM34 3.90625C34 4.54375 34.6562 8.14375 34.8438 8.5C35.2938 9.34375 35.9875 9.83125 37.675 10.3937C38.5938 10.7125 39.9438 11.275 40.6562 11.6312C43.1875 12.925 43.8438 12.85 46.3 11.0312C47.2188 10.3562 48.0438 9.8125 48.1562 9.8125C48.4 9.8125 52.1875 13.6 52.1875 13.8625C52.1875 13.9562 51.6438 14.7812 50.9688 15.7C49.15 18.175 49.075 18.8125 50.3688 21.3625C50.7438 22.0938 51.2875 23.4437 51.6063 24.3438C52.1688 26.0125 52.6563 26.7062 53.5 27.1562C53.8563 27.3438 57.4563 28 58.0938 28C58.15 28 58.1875 29.35 58.1875 31C58.1875 32.65 58.15 34 58.0938 34C57.4563 34 53.8563 34.6562 53.5 34.8437C52.6563 35.2937 52.1688 35.9875 51.6063 37.6562C51.2875 38.5562 50.7438 39.9062 50.3688 40.6375C49.075 43.1875 49.15 43.825 50.9688 46.3C51.6438 47.2187 52.1875 48.0437 52.1875 48.1562C52.1875 48.4 48.4 52.1875 48.1375 52.1875C48.0438 52.1875 47.2188 51.6437 46.3 50.9688C43.8438 49.15 43.1875 49.075 40.6562 50.3687C39.9438 50.725 38.5938 51.2875 37.675 51.6062C35.9875 52.1687 35.2938 52.6562 34.8438 53.5C34.6562 53.8562 34 57.4562 34 58.0938C34 58.15 32.65 58.1875 31 58.1875C29.35 58.1875 28 58.15 28 58.0938C28 57.4562 27.3438 53.8562 27.1563 53.5C26.7063 52.6562 26.0125 52.1687 24.3438 51.6062C23.4438 51.2875 22.0938 50.7437 21.3625 50.3687C18.8125 49.075 18.175 49.15 15.7 50.9688C14.7813 51.6437 13.9563 52.1875 13.8625 52.1875C13.6 52.1875 9.8125 48.4 9.8125 48.1562C9.8125 48.0437 10.3563 47.2187 11.0312 46.3C12.85 43.825 12.925 43.1875 11.6313 40.6375C11.2563 39.9062 10.7125 38.5562 10.3938 37.6562C9.5125 35.1062 9.0625 34.75 5.9125 34.2625L3.8125 33.9437V31V28.0562L5.9125 27.7375C9.0625 27.25 9.5125 26.8937 10.3938 24.3438C10.7125 23.4437 11.2563 22.0938 11.6313 21.3625C12.925 18.8125 12.85 18.175 11.0312 15.7C10.3563 14.7812 9.8125 13.9562 9.8125 13.8438C9.8125 13.6 13.6 9.8125 13.8625 9.8125C13.9563 9.8125 14.7813 10.3562 15.7 11.0312C18.175 12.85 18.8125 12.925 21.3625 11.6312C22.0938 11.2562 23.4438 10.7125 24.3438 10.3937C26.0125 9.83125 26.7063 9.34375 27.1563 8.5C27.3438 8.14375 28 4.54375 28 3.90625C28 3.85 29.35 3.8125 31 3.8125C32.65 3.8125 34 3.85 34 3.90625Z" fill="#1479FF" stroke="#1479FF"/>
<path d="M27.4375 18.4939C21.7375 20.2001 18.0625 25.0939 18.0625 31.0001C18.0625 38.2939 23.7063 43.9376 31 43.9376C38.2938 43.9376 43.9375 38.2939 43.9375 31.0001C43.9375 25.0189 40.15 20.0501 34.3375 18.4376C32.4063 17.8939 29.35 17.9314 27.4375 18.4939ZM34.0375 21.2501C37.0563 22.1689 39.8313 24.9439 40.75 27.9626C41.2563 29.6126 41.2563 32.3876 40.75 34.0376C39.8313 37.0564 37.0563 39.8314 34.0375 40.7501C32.3875 41.2564 29.6125 41.2564 27.9625 40.7501C24.9438 39.8314 22.1688 37.0564 21.25 34.0376C20.7438 32.3876 20.7438 29.6126 21.25 27.9626C22.1688 24.9814 24.925 22.2064 27.8875 21.2501C29.5 20.7439 32.4063 20.7439 34.0375 21.2501Z" fill="#1479FF" stroke="#1479FF"/>
</svg>
