<svg width="34" height="39" viewBox="0 0 34 39" fill="none" xmlns="http://www.w3.org/2000/svg">
<path d="M29.5923 8.34071C29.3291 8.20466 29.0728 8.05553 28.8245 7.89386C28.1025 7.4165 27.4404 6.85403 26.8527 6.21856C25.3821 4.53596 24.8329 2.82898 24.6306 1.63386H24.6387C24.4697 0.641843 24.5396 0 24.5502 0H17.8523V25.8996C17.8523 26.2473 17.8523 26.591 17.8376 26.9306C17.8376 26.9728 17.8336 27.0118 17.8311 27.0573C17.8311 27.076 17.8311 27.0955 17.8271 27.115C17.8271 27.1199 17.8271 27.1248 17.8271 27.1296C17.7565 28.0589 17.4586 28.9566 16.9596 29.7437C16.4607 30.5309 15.7759 31.1833 14.9656 31.6437C14.1211 32.1241 13.1659 32.3761 12.1943 32.3749C9.07364 32.3749 6.54445 29.8303 6.54445 26.6877C6.54445 23.5451 9.07364 21.0005 12.1943 21.0005C12.785 20.9999 13.3721 21.0929 13.9338 21.2759L13.9419 14.4561C12.2368 14.2358 10.5046 14.3714 8.85457 14.8541C7.20451 15.3368 5.67239 16.1562 4.35487 17.2607C3.20042 18.2638 2.22987 19.4606 1.48689 20.7973C1.20416 21.2848 0.137397 23.2437 0.00821548 26.4228C-0.0730305 28.2273 0.46888 30.0967 0.727242 30.8694V30.8856C0.889734 31.3406 1.51939 32.8932 2.54553 34.2021C3.37296 35.252 4.35056 36.1743 5.44682 36.9393V36.923L5.46307 36.9393C8.70559 39.1427 12.3007 38.9981 12.3007 38.9981C12.9231 38.9729 15.0078 38.9981 17.3753 37.876C20.0012 36.6322 21.4961 34.7789 21.4961 34.7789C22.4512 33.6716 23.2106 32.4097 23.7418 31.0473C24.3479 29.4541 24.5502 27.5432 24.5502 26.7795V13.0392C24.6314 13.0879 25.7136 13.8037 25.7136 13.8037C25.7136 13.8037 27.2727 14.803 29.7052 15.4538C31.4504 15.9169 33.8016 16.0144 33.8016 16.0144V9.36522C32.9778 9.45459 31.305 9.1946 29.5923 8.34071Z" fill="#1479FF"/>
</svg>
