<svg width="56" height="50" viewBox="0 0 56 50" fill="none" xmlns="http://www.w3.org/2000/svg">
<path d="M10.5 40C6.35786 40 3 36.6421 3 32.5V14.5C3 10.2996 3 8.19941 3.81745 6.59507C4.5365 5.18386 5.68386 4.0365 7.09507 3.31745C8.69941 2.5 10.7996 2.5 15 2.5H41C45.2004 2.5 47.3006 2.5 48.9049 3.31745C50.3161 4.0365 51.4635 5.18386 52.1825 6.59507C53 8.19941 53 10.2996 53 14.5V32.5C53 36.6421 49.6421 40 45.5 40M19.7701 47.5H36.2299C37.5921 47.5 38.2731 47.5 38.6169 47.2222C38.9157 46.9808 39.0868 46.6153 39.0811 46.2312C39.0744 45.7893 38.6384 45.2661 37.7664 44.2196L29.5364 34.3437C29.0088 33.7106 28.745 33.394 28.4291 33.2785C28.152 33.1772 27.848 33.1772 27.5709 33.2785C27.255 33.394 26.9912 33.7106 26.4636 34.3437L18.2336 44.2196C17.3616 45.2661 16.9256 45.7893 16.9189 46.2312C16.9132 46.6153 17.0843 46.9808 17.3831 47.2222C17.7269 47.5 18.4079 47.5 19.7701 47.5Z" stroke="#1479FF" stroke-width="5" stroke-linecap="round" stroke-linejoin="round"/>
</svg>
