<svg width="39" height="39" viewBox="0 0 39 39" fill="none" xmlns="http://www.w3.org/2000/svg">
<path d="M17.1814 0.0548172C13.5834 0.489323 10.0235 1.99102 7.15732 4.2855C6.32642 4.95631 4.90095 6.38179 4.23014 7.21268C1.94328 10.0713 0.586413 13.2881 0.0985497 16.9699C-0.0691532 18.2811 -0.0157932 21.2159 0.20527 22.3822C0.601658 24.4556 1.18862 26.2393 2.01951 27.8783C2.16434 28.1679 2.27869 28.4576 2.27869 28.5262C2.27869 28.6405 0.113795 38.5807 0.0223211 38.8628C-0.00817031 38.9543 0.0223211 39 0.106173 39C0.182401 39 2.5836 38.4664 5.4498 37.8108L10.6715 36.6293L11.6396 37.0409C13.4157 37.8032 15.2299 38.3063 17.1433 38.5579C18.2333 38.7027 21.0233 38.6798 22.1362 38.5121C26.5346 37.8718 30.2546 36.0195 33.3418 32.9398C36.3452 29.9364 38.2205 26.2012 38.8455 21.9629C39.0285 20.6899 39.0285 17.8923 38.8455 16.665C38.5025 14.4239 37.9156 12.602 36.917 10.6353C35.9412 8.72201 34.813 7.18219 33.197 5.57377C30.3461 2.73806 26.87 0.939072 22.8604 0.222523C21.8923 0.0548172 21.5035 0.0243263 19.7731 0.00145721C18.6831 -0.00616455 17.5168 0.0167046 17.1814 0.0548172ZM21.717 3.2183C29.1035 4.18641 35.0646 10.3533 35.8193 17.8008C36.5129 24.6919 32.4652 31.4534 25.9782 34.2205C21.4959 36.1338 16.4572 35.989 12.1427 33.8088L11.1441 33.3057L7.66042 34.0985C5.73946 34.5406 4.16153 34.8837 4.14629 34.8684C4.13104 34.8532 4.46645 33.2905 4.87808 31.4L5.64037 27.9469L5.183 27.1312C4.00145 25.0197 3.26204 22.5651 3.12482 20.3088C2.79704 14.8127 5.23636 9.62151 9.71097 6.29794C13.1565 3.73666 17.3796 2.65421 21.717 3.2183Z" fill="#1479FF"/>
<path d="M12.9905 10.7878C12.3425 10.9555 11.6336 11.6644 11.1229 12.6325C10.7265 13.3872 10.574 14.0733 10.5664 15.0261C10.5664 16.5049 11.1305 17.9228 12.4874 19.8514C13.5469 21.3531 14.0501 21.9629 15.1173 23.0301C17.0001 24.913 18.517 25.8734 20.9716 26.7577C22.9307 27.459 24.2037 27.6801 25.3395 27.5047C26.3838 27.337 27.7941 26.468 28.2362 25.7057C28.6631 24.9816 28.8841 23.3808 28.6021 23.1216C28.4191 22.9615 25.1337 21.3455 24.6687 21.193C24.4705 21.1244 24.2189 21.0939 24.1198 21.1168C24.0055 21.1473 23.6625 21.5055 23.2204 22.062C22.2446 23.2817 22.0769 23.4494 21.833 23.4494C21.5357 23.4494 19.973 22.6795 19.1116 22.1077C17.8615 21.2769 16.6037 19.981 15.6966 18.6089C15.041 17.6026 15.041 17.6255 15.8109 16.8175C16.3293 16.2686 16.6876 15.6512 16.6876 15.2929C16.6876 15.0642 15.285 11.5653 15.0563 11.2071C14.8276 10.864 14.576 10.7649 13.8747 10.7421C13.5165 10.7344 13.1201 10.7497 12.9905 10.7878Z" fill="#1479FF"/>
</svg>
