<svg width="31" height="22" viewBox="0 0 31 22" fill="none" xmlns="http://www.w3.org/2000/svg">
<path d="M15.6364 0.423901C17.6629 0.43522 24.9005 0.514452 26.927 1.06908C28.2212 1.4175 29.2415 2.43788 29.59 3.73201C30.1446 5.75854 30.2056 9.66837 30.2117 10.7441L30.2113 11.205C30.2041 12.1114 30.1411 16.1969 29.59 18.291C29.2415 19.5852 28.2212 20.6055 26.927 20.954C24.6592 21.5507 15.8658 21.5751 15.1517 21.5761H15.0596C14.3474 21.5751 5.57583 21.5497 3.28418 20.9291C1.99004 20.5807 0.969672 19.5603 0.621251 18.2661C0.0701771 16.1941 0.00719802 12.0916 0 11.1809V10.8181C0.00719802 9.9116 0.0701771 5.82609 0.621251 3.73201C0.969672 2.43788 2.01493 1.39261 3.28418 1.04419C5.31071 0.510897 12.5483 0.434712 14.5748 0.423828L15.6364 0.423901ZM12.0943 6.4696V15.5285L19.9586 10.9991L12.0943 6.4696Z" fill="#5D6E7F"/>
</svg>
