<svg width="45" height="31" viewBox="0 0 45 31" fill="none" xmlns="http://www.w3.org/2000/svg">
<path d="M22.8898 0.000106641C25.8564 0.0166762 36.4514 0.132663 39.418 0.944574C41.3124 1.45462 42.8062 2.94833 43.3162 4.84279C44.1281 7.80939 44.2175 13.5329 44.2264 15.1077L44.2258 15.7823C44.2153 17.1093 44.1231 23.09 43.3162 26.1555C42.8062 28.0499 41.3124 29.5436 39.418 30.0537C36.0982 30.9273 23.2256 30.963 22.1803 30.9644H22.0454C21.0028 30.9629 8.16236 30.9258 4.80765 30.0173C2.91319 29.5072 1.41948 28.0135 0.909438 26.119C0.102731 23.0858 0.010537 17.0802 0 15.7471V15.2159C0.010537 13.889 0.102731 7.90828 0.909438 4.84279C1.41948 2.94833 2.94962 1.41819 4.80765 0.908142C7.77425 0.127458 18.3693 0.0159324 21.3359 0L22.8898 0.000106641ZM17.7046 8.8503V22.1115L29.217 15.4809L17.7046 8.8503Z" fill="#1479FF"/>
</svg>
