<svg width="29" height="24" viewBox="0 0 29 24" fill="none" xmlns="http://www.w3.org/2000/svg">
<path d="M1.12354 20.7827C0.451246 21.2668 0.298645 22.2042 0.782698 22.8765C1.26675 23.5488 2.20416 23.7014 2.87646 23.2173L1.12354 20.7827ZM28.4805 4.24101C28.6136 3.42335 28.0587 2.6526 27.241 2.51949L13.9164 0.350368C13.0988 0.21726 12.328 0.772201 12.1949 1.58987C12.0618 2.40753 12.6167 3.17828 13.4344 3.31139L25.2785 5.2395L23.3504 17.0836C23.2173 17.9012 23.7722 18.672 24.5899 18.8051C25.4075 18.9382 26.1783 18.3833 26.3114 17.5656L28.4805 4.24101ZM2.87646 23.2173L27.8765 5.2173L26.1235 2.7827L1.12354 20.7827L2.87646 23.2173Z" fill="white"/>
</svg>
