<svg width="161" height="117" viewBox="0 0 161 117" fill="none" xmlns="http://www.w3.org/2000/svg">
<path d="M11.843 56.4106L10.8771 53.5131H4.46124L3.4954 56.4106H0.0689882L5.70303 40.3134H9.63536L15.2924 56.4106H11.843ZM5.47307 50.5466H9.88831L7.68069 43.9698L5.47307 50.5466ZM25.3869 48.0861C26.92 48.8986 27.6866 50.171 27.6866 51.9034C27.6866 53.3445 27.1423 54.5096 26.0538 55.3988C24.9654 56.288 23.5626 56.7326 21.8456 56.7326C18.8561 56.7326 16.8554 55.4678 15.8436 52.9382L18.5801 51.3975C19.0707 52.9612 20.1592 53.7431 21.8456 53.7431C22.7194 53.7431 23.3863 53.5591 23.8462 53.1912C24.3061 52.8233 24.5361 52.325 24.5361 51.6964C24.5361 51.0679 24.3061 50.5696 23.8462 50.2017C23.4016 49.8338 22.7577 49.6498 21.9145 49.6498H19.9139V46.8213H21.4316C22.2288 46.8213 22.8497 46.6526 23.2943 46.3154C23.7389 45.9628 23.9612 45.4875 23.9612 44.8896C23.9612 44.2917 23.7696 43.8241 23.3863 43.4868C23.003 43.1342 22.4358 42.9579 21.6846 42.9579C20.3048 42.9579 19.339 43.6325 18.7871 44.9816L16.0965 43.4179C17.185 41.1336 19.0477 39.9914 21.6846 39.9914C23.279 39.9914 24.5821 40.4207 25.5939 41.2792C26.6057 42.1377 27.1117 43.2722 27.1117 44.6826C27.1117 46.1237 26.5368 47.2582 25.3869 48.0861ZM39.0592 56.4106V46.5913L32.1604 56.4106H29.7458V40.3134H32.9192V50.1557L39.8181 40.3134H42.2327V56.4106H39.0592ZM56.5788 40.3134V56.4106H53.4053V50.8226H51.5886L47.8863 56.4106H44.3219L48.2542 50.4777C47.2271 50.1097 46.3915 49.4812 45.7476 48.592C45.1037 47.7028 44.7818 46.7216 44.7818 45.6485C44.7818 44.1767 45.303 42.9196 46.3455 41.8771C47.388 40.8346 48.6528 40.3134 50.1399 40.3134H56.5788ZM50.1399 48.0401H53.4053V43.2799H50.1399C49.542 43.2799 49.0284 43.5098 48.5992 43.9698C48.1699 44.4297 47.9553 44.9893 47.9553 45.6485C47.9553 46.3077 48.1699 46.8749 48.5992 47.3502C49.0284 47.8101 49.542 48.0401 50.1399 48.0401ZM77.6897 53.3752H79.4144V59.4921H76.241V56.4106H67.3415V59.4921H64.168V53.3752H65.7318C66.6209 52.1334 67.0655 50.3167 67.0655 47.9251V40.3134H77.6897V53.3752ZM69.1352 53.3752H74.5163V43.2799H70.239V47.9711C70.239 50.3014 69.8711 52.1027 69.1352 53.3752ZM84.7053 53.3752H91.4892V56.4106H81.5319V40.3134H91.3742V43.3489H84.7053V46.7753H90.7993V49.7648H84.7053V53.3752ZM102.879 40.3134H106.029V56.4106H102.879V49.7418H96.8995V56.4106H93.7261V40.3134H96.8995V46.7063H102.879V40.3134ZM119.667 40.3134V43.3489H115.32V56.4106H112.147V43.3489H107.824V40.3134H119.667Z" fill="#2B346F"/>
<path d="M8.17666 72.2139H6.30341L2.52957 67.6606V72.2139H0.957134V62.6425H2.52957V66.936L6.16668 62.6425H8.03993L4.17037 67.3051L8.17666 72.2139ZM16.9213 65.3772V72.2139H15.4446V66.7992H13.1611V69.3425C13.1611 70.4272 12.9241 71.1975 12.4501 71.6533C11.9761 72.109 11.3016 72.2959 10.4265 72.2139V70.8329C10.8458 70.9058 11.1603 70.8192 11.3699 70.5731C11.5796 70.3269 11.6844 69.894 11.6844 69.2741V65.3772H16.9213ZM25.6429 65.3772H26.7777V72.2139H25.3284V67.8657L21.828 72.2139H20.6931V65.3772H22.1425V69.7116L25.6429 65.3772ZM35.1501 65.3772H36.6268V72.2139H35.1501V69.4929H32.0189V72.2139H30.5422V65.3772H32.0189V68.0982H35.1501V65.3772ZM45.341 65.3772H46.4759V72.2139H45.0265V67.8657L41.5262 72.2139H40.3913V65.3772H41.8406V69.7116L45.341 65.3772ZM56.284 72.2139H54.5201L51.7171 69.0553V72.2139H50.2403V65.3772H51.7171V68.399L54.3697 65.3772H56.1746L53.1664 68.7272L56.284 72.2139ZM64.1955 65.3772H65.6722V72.2139H64.1955V71.2294C63.6394 72.0042 62.8418 72.3916 61.8027 72.3916C60.8638 72.3916 60.0616 72.0452 59.3962 71.3524C58.7307 70.6505 58.398 69.7982 58.398 68.7955C58.398 67.7837 58.7307 66.9314 59.3962 66.2386C60.0616 65.5458 60.8638 65.1994 61.8027 65.1994C62.8418 65.1994 63.6394 65.5823 64.1955 66.348V65.3772ZM60.49 70.368C60.9002 70.7782 61.4152 70.9833 62.0351 70.9833C62.655 70.9833 63.17 70.7782 63.5802 70.368C63.9904 69.9486 64.1955 69.4245 64.1955 68.7955C64.1955 68.1666 63.9904 67.647 63.5802 67.2368C63.17 66.8175 62.655 66.6078 62.0351 66.6078C61.4152 66.6078 60.9002 66.8175 60.49 67.2368C60.0798 67.647 59.8747 68.1666 59.8747 68.7955C59.8747 69.4245 60.0798 69.9486 60.49 70.368ZM72.6714 72.3916C71.6413 72.3916 70.7799 72.0452 70.0871 71.3524C69.4034 70.6597 69.0616 69.8074 69.0616 68.7955C69.0616 67.7746 69.4034 66.9223 70.0871 66.2386C70.7799 65.5458 71.6413 65.1994 72.6714 65.1994C73.3368 65.1994 73.943 65.359 74.4899 65.678C75.0369 65.9971 75.4471 66.4255 75.7205 66.9633L74.4489 67.7017C74.2939 67.3735 74.0569 67.1183 73.7379 66.936C73.428 66.7445 73.0679 66.6488 72.6577 66.6488C72.0561 66.6488 71.5502 66.8539 71.14 67.2641C70.7389 67.6743 70.5383 68.1848 70.5383 68.7955C70.5383 69.4063 70.7389 69.9167 71.14 70.3269C71.5502 70.7371 72.0561 70.9422 72.6577 70.9422C73.0588 70.9422 73.4188 70.8465 73.7379 70.6551C74.066 70.4637 74.3122 70.2084 74.4762 69.8894L75.7479 70.6141C75.4562 71.161 75.0369 71.594 74.4899 71.9131C73.943 72.2321 73.3368 72.3916 72.6714 72.3916ZM81.8871 67.7017C82.6163 67.7017 83.2134 67.9113 83.6783 68.3306C84.1432 68.7408 84.3756 69.2832 84.3756 69.9578C84.3756 70.6232 84.1432 71.1656 83.6783 71.5849C83.2134 72.0042 82.6163 72.2139 81.8871 72.2139H78.9063V65.3772H80.383V67.7017H81.8871ZM85.196 65.3772H86.6728V72.2139H85.196V65.3772ZM81.9008 70.8876C82.1925 70.8876 82.434 70.801 82.6255 70.6278C82.826 70.4546 82.9263 70.2312 82.9263 69.9578C82.9263 69.6752 82.826 69.4519 82.6255 69.2878C82.434 69.1146 82.1925 69.028 81.9008 69.028H80.383V70.8876H81.9008Z" fill="#2B346F"/>
<path d="M129.742 13.6937C106.321 19.6348 92.6793 12.0609 88.786 7.53133C88.355 19.2032 106.178 22.8209 115.144 23.1708C123.872 21.2502 135.53 18.2087 140.02 30.3055C145.633 45.4264 134.944 75.0529 130.473 85.896C126.896 94.5705 121.904 91.9948 120.332 89.3394C119.049 86.3331 115.723 78.6603 112.823 71.0936C109.923 63.5269 104.435 61.3129 101.539 60.6406C96.7573 59.921 94.6416 62.1004 95.9805 63.5113C103.894 64.3865 106.35 71.8286 108.193 75.1295C115.419 104.691 120.741 103.572 124.903 103.515C142.997 92.3492 149.496 47.9285 150.705 24.1155C150.819 21.8757 150.539 19.5609 149.174 17.7812C144.288 11.4082 134.528 12.2565 129.742 13.6937Z" fill="#2B346F"/>
<path d="M127.939 68.6088C138.752 42.7056 135.605 30.6583 132.59 27.8443C143.476 25.9487 138.68 53.4224 134.921 67.3963C130.38 80.2796 127.091 86.4103 124.742 86.2935C122.394 86.1768 112.187 64.37 116.628 67.8778C119.25 69.9486 122.614 70.5733 125.006 70.6478C126.314 70.6885 127.435 69.8173 127.939 68.6088Z" fill="#2B346F"/>
<path d="M76.1082 79.1206C74.1124 78.1201 72.8385 79.0064 72.0875 80.3975C71.1124 82.2035 71.5168 84.3911 72.2041 86.325C77.3846 100.902 84.6962 104.445 87.8752 104.33C89.4489 103.831 92.7945 101.726 93.5863 97.302C94.3782 92.8779 96.1134 86.7974 96.882 84.3101C97.8411 81.0799 99.1197 78.6505 100.329 76.9257C101.963 74.5938 104.234 70.6117 101.417 71.0307C100.575 71.1558 99.8794 71.5403 99.2029 72.056C93.9184 76.0851 90.8734 84.3094 89.5751 89.7589C89.1628 91.4899 88.2638 93.6912 86.5552 93.1942C84.1324 92.4894 81.65 88.167 79.969 84.3064C79.086 82.2786 78.0854 80.1118 76.1082 79.1206Z" fill="#2B346F"/>
<path d="M69.6152 34.5501L58.8171 32.9254C57.2302 27.3499 57.2869 23.0078 58.2174 19.6889C60.563 11.3232 71.5196 10.9065 79.6752 13.9022C86.0611 16.2478 87.1076 18.5078 96.3092 22.7914C109.577 28.9682 117.211 27.5138 123.29 25.9044C128.153 24.6169 127.688 26.724 126.848 27.9385C124.736 33.0632 105.247 35.731 97.7909 29.7188C93.7171 26.434 87.2295 24.4243 81.9883 23.3411C77.9494 22.5063 72.987 22.2633 71.0618 25.9107C69.6225 28.6374 69.4183 32.2996 69.6152 34.5501Z" fill="#2B346F"/>
</svg>
