<svg width="29" height="29" viewBox="0 0 29 29" fill="none" xmlns="http://www.w3.org/2000/svg">
<path d="M22.5208 6.47917L6.47917 22.5208M9.39583 12.3125V6.47917M6.47917 9.39583H12.3125M16.6875 19.6042H22.5208M8.375 27.625H20.625C23.0752 27.625 24.3003 27.625 25.2362 27.1482C26.0594 26.7287 26.7287 26.0594 27.1482 25.2362C27.625 24.3003 27.625 23.0752 27.625 20.625V8.375C27.625 5.92477 27.625 4.69966 27.1482 3.76379C26.7287 2.94058 26.0594 2.27129 25.2362 1.85185C24.3003 1.375 23.0752 1.375 20.625 1.375H8.375C5.92477 1.375 4.69966 1.375 3.76379 1.85185C2.94058 2.27129 2.27129 2.94058 1.85185 3.76379C1.375 4.69966 1.375 5.92477 1.375 8.375V20.625C1.375 23.0752 1.375 24.3003 1.85185 25.2362C2.27129 26.0594 2.94058 26.7287 3.76379 27.1482C4.69966 27.625 5.92477 27.625 8.375 27.625Z" stroke="black" stroke-width="2" stroke-linecap="round" stroke-linejoin="round"/>
</svg>
