<svg width="27" height="31" viewBox="0 0 27 31" fill="none" xmlns="http://www.w3.org/2000/svg">
<path d="M9.12467 14.7709L12.0413 17.6875L18.6038 11.125M25.1663 15.5C25.1663 22.6582 17.3585 27.8644 14.5176 29.5217C14.1947 29.7101 14.0333 29.8043 13.8055 29.8531C13.6287 29.891 13.3707 29.891 13.1939 29.8531C12.9661 29.8043 12.8046 29.7101 12.4818 29.5217C9.64087 27.8644 1.83301 22.6582 1.83301 15.5V8.5257C1.83301 7.35975 1.83301 6.77677 2.0237 6.27565C2.19216 5.83295 2.4659 5.43794 2.82126 5.12477C3.22352 4.77026 3.76938 4.56556 4.8611 4.15617L12.6804 1.22393C12.9836 1.11024 13.1352 1.0534 13.2911 1.03086C13.4294 1.01087 13.5699 1.01087 13.7082 1.03086C13.8642 1.0534 14.0158 1.11024 14.319 1.22393L22.1383 4.15617C23.23 4.56556 23.7758 4.77026 24.1781 5.12477C24.5334 5.43794 24.8072 5.83295 24.9756 6.27565C25.1663 6.77677 25.1663 7.35975 25.1663 8.5257V15.5Z" stroke="black" stroke-width="2" stroke-linecap="round" stroke-linejoin="round"/>
</svg>
