<svg width="73" height="77" viewBox="0 0 73 77" fill="none" xmlns="http://www.w3.org/2000/svg">
<path d="M44.342 5.01145C37.942 11.4114 32.0086 7.67811 29.842 5.01145C20.5085 -0.155293 4.83878 -2.48877 0.840235 13.5112C-3.92765 32.5897 12.8416 51.8446 19.8416 58.5112L9 33C2.5 10.5112 14.5086 9.01123 19.842 10.5112C26.342 12.3394 31.5399 18.7112 38.3399 17.5112C45.1399 16.3112 50.3399 8.51123 53.842 7.51123C68.642 5.51123 66.6753 21.6779 63.842 30.0112L50.342 61.0112C49.542 50.2112 44.342 45.5112 41.842 44.5112C30.5 39 27.0086 50.1779 26.342 56.5112C27.942 46.5112 33.0065 43.8446 35.3398 44.0112C48.8377 44.0112 48.8398 65.1779 48.8398 76.5112L70.3398 30.0112C76.8398 13.5112 67.342 2.84471 62.342 1.01145C59.0086 -0.321888 50.742 -1.38856 44.342 5.01145Z" fill="#1479FF"/>
</svg>
