<svg width="31" height="31" viewBox="0 0 31 31" fill="none" xmlns="http://www.w3.org/2000/svg">
<path d="M16.8934 0.117676C19.5702 0.123015 20.1475 0.145682 21.5181 0.208456C23.127 0.282147 24.2262 0.533926 25.1842 0.908523C26.1791 1.2954 27.0204 1.81124 27.8617 2.65255C28.6968 3.48772 29.2127 4.33516 29.5996 5.32385C29.968 6.28184 30.2259 7.38107 30.2996 8.98999C30.3679 10.4797 30.3887 11.0323 30.3914 14.3624V16.0714C30.3887 19.4015 30.3679 19.9541 30.2996 21.4438C30.2259 23.0527 29.9742 24.152 29.5996 25.1099C29.2127 26.1048 28.6969 26.9461 27.8555 27.7874C27.0142 28.6287 26.1729 29.1445 25.1781 29.5314C24.2201 29.8999 23.1209 30.1578 21.512 30.2315C19.903 30.3052 19.3872 30.3236 15.2851 30.3236L14.8438 30.3235C11.1432 30.3222 10.6075 30.3024 9.05814 30.2315C7.44922 30.1578 6.34999 29.906 5.392 29.5314C4.39717 29.1445 3.55587 28.6287 2.71456 27.7874C1.87325 26.9461 1.35741 26.1048 0.970535 25.1099C0.602079 24.152 0.344153 23.0527 0.270462 21.4438C0.207688 20.0732 0.185026 19.4959 0.179688 16.8192V13.6146C0.185026 10.9379 0.207688 10.3606 0.270462 8.98999C0.344153 7.38107 0.595938 6.28184 0.970535 5.32385C1.35741 4.33516 1.87325 3.48772 2.71456 2.65255C3.55587 1.81124 4.39717 1.2954 5.392 0.908523C6.34999 0.533926 7.44922 0.276006 9.06428 0.208456C10.4349 0.145682 11.0122 0.123015 13.6889 0.117676H16.8934ZM15.7189 2.83683H14.8512C11.2135 2.83777 10.7126 2.85179 9.18096 2.92275C7.70714 2.9903 6.90881 3.23594 6.37455 3.44473C5.66834 3.72107 5.16479 4.04654 4.63667 4.57466C4.10855 5.10278 3.78308 5.60634 3.50674 6.31254C3.29794 6.84681 3.05231 7.64513 2.98476 9.11895C2.91721 10.7095 2.89879 11.1884 2.89879 15.223C2.89879 19.2576 2.91107 19.7366 2.98476 21.3271C3.05231 22.801 3.29794 23.5993 3.50674 24.1335C3.78308 24.8397 4.10855 25.3433 4.63667 25.8714C5.16479 26.3995 5.66834 26.725 6.37455 27.0014C6.90881 27.2101 7.70714 27.4558 9.18096 27.5233C10.7715 27.5909 11.2505 27.6093 15.2851 27.6093L15.7189 27.6093C19.3567 27.6083 19.8575 27.5943 21.3891 27.5233C22.863 27.4558 23.6613 27.2101 24.1955 27.0014C24.9018 26.725 25.4053 26.3995 25.9334 25.8714C26.4615 25.3433 26.787 24.8397 27.0634 24.1335C27.2722 23.5993 27.5178 22.801 27.5853 21.3271C27.6529 19.7366 27.6713 19.2576 27.6713 15.223L27.6713 14.7891C27.6703 11.1514 27.6563 10.6505 27.5853 9.11895C27.5178 7.64513 27.2722 6.84681 27.0634 6.31254C26.787 5.60634 26.4615 5.10278 25.9334 4.57466C25.4053 4.04654 24.9018 3.72107 24.1955 3.44473C23.6613 3.23594 22.863 2.9903 21.3891 2.92275C19.7986 2.84906 19.3196 2.83678 15.2851 2.83678L15.7189 2.83683ZM15.2851 7.46704C19.5714 7.46704 23.0411 10.9428 23.0411 15.223C23.0411 19.5033 19.5653 22.979 15.2851 22.979C11.0048 22.979 7.52905 19.5094 7.52905 15.223C7.52905 10.9367 10.9987 7.46704 15.2851 7.46704ZM15.2851 10.1875C12.5032 10.1875 10.2495 12.4412 10.2495 15.223C10.2495 18.0049 12.5032 20.2586 15.2851 20.2586C18.0669 20.2586 20.3206 18.0049 20.3206 15.223C20.3206 12.4412 18.0669 10.1875 15.2851 10.1875ZM23.3542 5.34842C24.3547 5.34842 25.1658 6.15949 25.1658 7.15999C25.1658 8.1605 24.3547 8.97157 23.3542 8.97157C22.3537 8.97157 21.5427 8.1605 21.5427 7.15999C21.5427 6.15949 22.3537 5.34842 23.3542 5.34842Z" fill="white"/>
</svg>
