<svg width="33" height="33" viewBox="0 0 33 33" fill="none" xmlns="http://www.w3.org/2000/svg">
<path d="M7.88794 15.3753C7.7973 14.7911 7.75027 14.1927 7.75027 13.5833C7.75027 7.13997 13.008 1.91663 19.4937 1.91663C25.9794 1.91663 31.2371 7.13997 31.2371 13.5833C31.2371 15.0388 30.9688 16.4321 30.4787 17.7169C30.3769 17.9838 30.326 18.1172 30.3029 18.2214C30.28 18.3246 30.2711 18.3972 30.2686 18.5029C30.2661 18.6096 30.2806 18.7271 30.3095 18.9621L30.8966 23.7311C30.9602 24.2474 30.992 24.5055 30.9061 24.6932C30.8308 24.8576 30.6972 24.9882 30.5311 25.0596C30.3415 25.1412 30.0842 25.1035 29.5695 25.028L24.9243 24.3471C24.6818 24.3116 24.5605 24.2938 24.4501 24.2944C24.3408 24.295 24.2652 24.3031 24.1583 24.3256C24.0502 24.3483 23.9121 24.4 23.6359 24.5035C22.3478 24.986 20.9518 25.25 19.4937 25.25C18.8838 25.25 18.2848 25.2038 17.7 25.1147M10.1297 31.0833C14.4535 31.0833 17.9587 27.4922 17.9587 23.0625C17.9587 18.6327 14.4535 15.0416 10.1297 15.0416C5.8059 15.0416 2.30076 18.6327 2.30076 23.0625C2.30076 23.9529 2.44239 24.8095 2.70383 25.6098C2.81435 25.9481 2.86961 26.1172 2.88774 26.2328C2.90667 26.3534 2.90999 26.4212 2.90294 26.5431C2.89619 26.6599 2.86697 26.7919 2.80854 27.0558L1.91699 31.0833L6.28441 30.4868C6.5228 30.4543 6.64199 30.438 6.74607 30.4387C6.85567 30.4394 6.91383 30.4454 7.02132 30.4668C7.12339 30.4872 7.27514 30.5407 7.57864 30.6478C8.37827 30.93 9.23652 31.0833 10.1297 31.0833Z" stroke="black" stroke-width="2" stroke-linecap="round" stroke-linejoin="round"/>
</svg>
