<svg width="29" height="29" viewBox="0 0 29 29" fill="none" xmlns="http://www.w3.org/2000/svg">
<path d="M1.375 10.125H27.625M1.375 18.875H27.625M14.5 1.375V27.625M8.375 1.375H20.625C23.0752 1.375 24.3003 1.375 25.2362 1.85185C26.0594 2.27129 26.7287 2.94058 27.1482 3.76379C27.625 4.69966 27.625 5.92477 27.625 8.375V20.625C27.625 23.0752 27.625 24.3003 27.1482 25.2362C26.7287 26.0594 26.0594 26.7287 25.2362 27.1482C24.3003 27.625 23.0752 27.625 20.625 27.625H8.375C5.92477 27.625 4.69966 27.625 3.76379 27.1482C2.94058 26.7287 2.27129 26.0594 1.85185 25.2362C1.375 24.3003 1.375 23.0752 1.375 20.625V8.375C1.375 5.92477 1.375 4.69966 1.85185 3.76379C2.27129 2.94058 2.94058 2.27129 3.76379 1.85185C4.69966 1.375 5.92477 1.375 8.375 1.375Z" stroke="black" stroke-width="2" stroke-linecap="round" stroke-linejoin="round"/>
</svg>
