<svg width="173" height="96" viewBox="0 0 173 96" fill="none" xmlns="http://www.w3.org/2000/svg">
<path d="M12.4403 87.1521C9.16051 87.1521 6.43429 86.0553 4.26168 83.8618C2.10995 81.6892 1.03408 78.9839 1.03408 75.7458C1.03408 72.4869 2.10995 69.7816 4.26168 67.6298C6.43429 65.4363 9.16051 64.3396 12.4403 64.3396C14.4249 64.3396 16.2529 64.8096 17.9241 65.7497C19.6162 66.6689 20.9323 67.9223 21.8724 69.51L18.1435 71.6722C17.6003 70.6903 16.8274 69.9278 15.8246 69.3847C14.8219 68.8206 13.6938 68.5386 12.4403 68.5386C10.3095 68.5386 8.58602 69.2071 7.26992 70.5441C5.9747 71.902 5.32709 73.6359 5.32709 75.7458C5.32709 77.8349 5.9747 79.5584 7.26992 80.9162C8.58602 82.2532 10.3095 82.9217 12.4403 82.9217C13.6938 82.9217 14.8219 82.6502 15.8246 82.107C16.8482 81.543 17.6212 80.7805 18.1435 79.8195L21.8724 81.9817C20.9323 83.5693 19.6162 84.8332 17.9241 85.7733C16.2529 86.6925 14.4249 87.1521 12.4403 87.1521ZM36.9007 71.0455H40.8803V86.7134H36.9633V77.5633L32.9837 83.8305H32.4823L28.4713 77.5006V86.7134H24.5857V71.0455H28.5653L32.733 77.626L36.9007 71.0455ZM56.476 72.8943V71.0455H60.5183V86.7134H56.476V84.8646C55.2644 86.3896 53.5618 87.1521 51.3683 87.1521C49.2792 87.1521 47.4826 86.3582 45.9785 84.7706C44.4953 83.162 43.7537 81.1983 43.7537 78.8794C43.7537 76.5815 44.4953 74.6282 45.9785 73.0196C47.4826 71.411 49.2792 70.6068 51.3683 70.6068C53.5618 70.6068 55.2644 71.3693 56.476 72.8943ZM49.0181 82.0757C49.8328 82.8904 50.8669 83.2978 52.1203 83.2978C53.3738 83.2978 54.4079 82.8904 55.2226 82.0757C56.0582 81.2401 56.476 80.1746 56.476 78.8794C56.476 77.5842 56.0582 76.5292 55.2226 75.7145C54.4079 74.8789 53.3738 74.4611 52.1203 74.4611C50.8669 74.4611 49.8328 74.8789 49.0181 75.7145C48.2034 76.5292 47.796 77.5842 47.796 78.8794C47.796 80.1746 48.2034 81.2401 49.0181 82.0757ZM75.9035 69.04H66.8161V65.5303H75.9035V69.04ZM68.1322 79.9448L75.4961 71.0455H78.5044V86.7134H74.5561V77.814L67.1921 86.7134H64.1839V71.0455H68.1322V79.9448ZM83.2422 71.0455H95.6512V86.7134H91.6089V74.9311H87.2845V80.1642C87.2845 84.9899 85.0806 87.173 80.6727 86.7134V82.9217C81.5083 83.1306 82.1455 82.9844 82.5842 82.483C83.0229 81.9817 83.2422 81.1356 83.2422 79.9448V71.0455ZM116.361 64.7783V82.577H118.711V90.9124H114.387V86.7134H102.26V90.9124H97.9356V82.577H100.066C101.278 80.9058 101.884 78.4303 101.884 75.1504V64.7783H116.361ZM104.704 82.577H112.037V68.8206H106.208V75.2131C106.208 78.4094 105.707 80.864 104.704 82.577ZM136.026 80.5402H124.212C124.734 82.5039 126.207 83.4858 128.63 83.4858C130.176 83.4858 131.346 82.9635 132.14 81.919L135.399 83.7991C133.853 86.0344 131.576 87.1521 128.568 87.1521C125.977 87.1521 123.899 86.3687 122.332 84.8019C120.765 83.2351 119.982 81.2609 119.982 78.8794C119.982 76.5397 120.755 74.576 122.301 72.9883C123.826 71.4006 125.81 70.6068 128.254 70.6068C130.573 70.6068 132.464 71.4006 133.926 72.9883C135.43 74.576 136.182 76.5397 136.182 78.8794C136.182 79.3181 136.13 79.8717 136.026 80.5402ZM124.149 77.4066H132.14C131.91 76.383 131.44 75.5996 130.73 75.0564C130.041 74.5133 129.215 74.2417 128.254 74.2417C127.168 74.2417 126.27 74.5237 125.56 75.0878C124.849 75.6309 124.379 76.4039 124.149 77.4066ZM149.283 76.9679V71.0455H153.325V86.7134H149.283V80.7596H143.047V86.7134H139.004V71.0455H143.047V76.9679H149.283ZM155.493 71.0455H169.375V74.9311H164.487V86.7134H160.444V74.9311H155.493V71.0455Z" fill="black"/>
<path d="M40.0213 4.23503C35.7508 1.40211 28.4536 2.54007 25.2384 3.60597C1.91088 -8.8703 -5.27083 14.0379 3.79804 26.619C3.64084 47.8498 10.8749 52.5677 15.2783 53.0919C18.8011 53.5112 21.6039 48.6885 22.5649 46.2247C24.2005 54.0669 29.0129 54.8043 31.0049 54.2976C38.1342 50.5233 41.332 42.2407 41.961 37.2082C42.4457 33.3301 42.3803 30.97 42.4327 30.2361C52.9171 15.1387 45.3159 7.74729 40.0213 4.23503Z" fill="#BB3F47"/>
<path d="M25.7978 9.53116C30.044 7.38188 33.7659 8.11578 36.8588 8.53512C34.9716 6.6479 29.3682 6.59843 26.9511 7.11977C24.2776 7.69641 21.971 5.2326 18.8258 4.28899C10.8576 1.89848 3.30897 5.54719 3.57109 13.4628C3.72461 18.0989 5.24891 22.6039 6.96178 25.1844C7.31079 25.7102 7.45904 26.3511 7.33916 26.9707C6.59652 30.809 6.81838 35.4818 7.18816 37.3146C8.41132 42.1723 11.7908 51.6361 15.5232 50.6296C19.2556 49.6231 20.7479 43.0809 21.0274 39.9356C21.1765 38.2582 21.2686 34.8193 23.0719 34.6935C24.8752 34.5677 25.291 38.7998 25.2736 40.9316C25.2561 41.2811 25.347 42.8293 25.8502 46.2262C26.3535 49.6231 28.3315 50.7519 29.2576 50.8917C33.5037 50.4724 35.2861 43.8148 35.3909 42.2946C35.4748 41.0784 35.2107 41.1938 34.8667 41.9801C32.5182 47.348 30.6031 48.5502 29.9391 48.4803C27.9261 47.5158 27.7024 43.4304 27.8422 41.5083C28.0939 36.4758 27.0734 34.0645 26.6365 33.4354C24.6969 31.1813 21.5516 31.4084 20.4508 31.9676C19.5422 32.5617 17.5886 34.9346 17.0434 39.6735C16.4982 44.4124 15.5581 45.702 15.1562 45.7544C10.6519 41.7592 10.8575 31.9657 11.6303 26.6753C11.7272 26.0124 11.5176 25.3452 11.1164 24.8088C8.90864 21.8565 7.49164 16.7736 7.03091 14.4063C6.68143 12.3619 7.29302 7.91657 12.5352 6.4907C17.7773 5.06484 22.2157 7.53915 23.6485 9.00695C24.8018 10.0554 25.5707 9.63602 25.7978 9.53116Z" fill="white"/>
<path d="M30.3523 15.0271C25.0682 22.3241 17.9808 20.9682 15.0977 19.378C15.6743 20.741 19.239 24.3057 22.5939 23.8863C26.5255 23.3948 29.6184 18.1199 30.5096 15.6561C31.0967 13.8528 30.6843 14.5028 30.3523 15.0271Z" fill="white"/>
<path d="M34.4932 10.5869C37.3763 11.1662 38.0578 10.9565 40.2442 9.01691C39.4208 11.638 39.8402 12.5292 41.8142 14.7679C39.1063 13.8921 38.0054 13.997 36.0632 16.3379C36.5376 14.0494 36.2755 12.5816 34.4932 10.5869Z" fill="white"/>
<path d="M40.7832 10.4688C42.1018 10.7337 42.4135 10.6378 43.4134 9.75072C43.0368 10.9495 43.2286 11.357 44.1314 12.3809C42.893 11.9804 42.3895 12.0283 41.5012 13.0989C41.7182 12.0523 41.5983 11.381 40.7832 10.4688Z" fill="white"/>
</svg>
