<svg width="26" height="30" viewBox="0 0 26 30" fill="none" xmlns="http://www.w3.org/2000/svg">
<path d="M22.4692 6.4507C22.2693 6.3474 22.0747 6.23416 21.8862 6.11141C21.3379 5.74896 20.8353 5.32188 20.389 4.83938C19.2724 3.56179 18.8554 2.2657 18.7018 1.35825H18.708C18.5797 0.605021 18.6327 0.117676 18.6407 0.117676H13.5551V19.783C13.5551 20.047 13.5551 20.308 13.544 20.5658C13.544 20.5979 13.5409 20.6275 13.539 20.6621C13.539 20.6763 13.539 20.6911 13.5359 20.7059C13.5359 20.7096 13.5359 20.7133 13.5359 20.717C13.4823 21.4226 13.2561 22.1042 12.8773 22.7018C12.4984 23.2995 11.9785 23.7949 11.3632 24.1444C10.722 24.5092 9.99676 24.7006 9.25902 24.6996C6.88953 24.6996 4.96914 22.7675 4.96914 20.3814C4.96914 17.9952 6.88953 16.0631 9.25902 16.0631C9.70755 16.0627 10.1533 16.1333 10.5798 16.2723L10.586 11.0941C9.29132 10.9268 7.97608 11.0297 6.7232 11.3962C5.47032 11.7628 4.307 12.385 3.30662 13.2236C2.43005 13.9852 1.69312 14.8939 1.12898 15.9089C0.914305 16.279 0.104324 17.7664 0.00623794 20.1803C-0.0554514 21.5504 0.356016 22.9699 0.552188 23.5565V23.5689C0.675567 23.9143 1.15366 25.0932 1.9328 26.087C2.56106 26.8842 3.30334 27.5845 4.13572 28.1653V28.153L4.14806 28.1653C6.61008 29.8384 9.33983 29.7285 9.33983 29.7285C9.81237 29.7094 11.3953 29.7285 13.1929 28.8766C15.1867 27.9322 16.3218 26.525 16.3218 26.525C17.047 25.6842 17.6236 24.7261 18.0269 23.6916C18.4871 22.4819 18.6407 21.031 18.6407 20.4511V10.0182C18.7024 10.0552 19.5241 10.5987 19.5241 10.5987C19.5241 10.5987 20.7079 11.3575 22.5549 11.8516C23.88 12.2032 25.6653 12.2773 25.6653 12.2773V7.2286C25.0398 7.29646 23.7696 7.09906 22.4692 6.4507Z" fill="white"/>
</svg>
