<svg width="31" height="22" viewBox="0 0 31 22" fill="none" xmlns="http://www.w3.org/2000/svg">
<path d="M16.4244 0.501538C18.451 0.512857 25.6886 0.592089 27.7151 1.14672C29.0092 1.49514 30.0296 2.51551 30.378 3.80965C30.9327 5.83618 30.9937 9.74601 30.9998 10.8217L30.9994 11.2826C30.9922 12.1891 30.9292 16.2746 30.378 18.3687C30.0296 19.6628 29.0092 20.6832 27.7151 21.0316C25.4473 21.6284 16.6539 21.6527 15.9398 21.6537H15.8477C15.1354 21.6527 6.36392 21.6274 4.07226 21.0067C2.77813 20.6583 1.75776 19.6379 1.40934 18.3438C0.858263 16.2717 0.795284 12.1692 0.788086 11.2586V10.8957C0.795284 9.98923 0.858263 5.90373 1.40934 3.80965C1.75776 2.51551 2.80301 1.47025 4.07226 1.12183C6.09879 0.588534 13.3364 0.512348 15.3629 0.501465L16.4244 0.501538ZM12.8823 6.54724V15.6062L20.7467 11.0767L12.8823 6.54724Z" fill="white"/>
</svg>
