<svg width="41" height="44" viewBox="0 0 41 44" fill="none" xmlns="http://www.w3.org/2000/svg">
<path fill-rule="evenodd" clip-rule="evenodd" d="M6.47368 0C2.89837 0 0 2.89836 0 6.47368V37.4549C0 41.0302 2.89836 43.9286 6.47368 43.9286H19.0357C31.1663 43.9286 41 34.0948 41 21.9643C41 9.83374 31.1663 0 19.0357 0H6.47368ZM9.78144 23.2479C9.31424 23.0381 8.78613 23.3799 8.78613 23.892V26.5004C8.78613 26.7951 8.9591 27.0624 9.22795 27.1831C15.4668 29.9842 22.6055 29.9842 28.8443 27.1831C29.1132 27.0624 29.2861 26.7951 29.2861 26.5004V23.892C29.2861 23.3799 28.758 23.0381 28.2908 23.2479C22.4041 25.8909 15.6682 25.8909 9.78144 23.2479Z" fill="#1479FF"/>
</svg>
